<svg width="496" height="226" xmlns="http://www.w3.org/2000/svg" xmlns:xlink="http://www.w3.org/1999/xlink" xml:space="preserve" overflow="hidden"><g transform="translate(-403 -237)"><path d="M0 0 0.000104847 164.78" stroke="#D9D9D9" stroke-width="0.998667" stroke-linejoin="round" stroke-miterlimit="10" fill="none" fill-rule="evenodd" transform="matrix(1 0 0 -1.00362 470.073 417.912)"/><path d="M457.889 435.918 461.883 435.918M457.889 408.954 461.883 408.954M457.889 380.991 461.883 380.991M457.889 354.027 461.883 354.027M457.889 326.065 461.883 326.065M457.889 299.101 461.883 299.101M457.889 271.138 461.883 271.138" stroke="#D9D9D9" stroke-width="0.998667" stroke-linejoin="round" stroke-miterlimit="10" fill="none" transform="matrix(1 0 0 1.00362 8.18938 -19.5838)"/><path d="M461.883 435.918 886.317 435.918" stroke="#D9D9D9" stroke-width="0.998667" stroke-linejoin="round" stroke-miterlimit="10" fill="none" fill-rule="evenodd" transform="matrix(1 0 0 1.00362 8.18938 -19.5838)"/><path d="M497.835 435.918 497.835 439.913M568.741 435.918 568.741 439.913M638.647 435.918 638.647 439.913M709.553 435.918 709.553 439.913M780.458 435.918 780.458 439.913M851.363 435.918 851.363 439.913M886.317 435.918 886.317 439.913" stroke="#D9D9D9" stroke-width="0.998667" stroke-linejoin="round" stroke-miterlimit="10" fill="none" transform="matrix(1 0 0 1.00362 8.18938 -19.5838)"/><path d="M497.336 408.455C520.904 404.79 544.473 402.269 568.042 397.458 591.61 392.648 615.179 387.379 638.747 379.59 662.316 371.801 685.884 361.263 709.453 350.725 733.021 340.187 756.59 328.046 780.158 316.363 803.727 304.679 827.295 292.537 850.864 280.625" stroke="#BA8F2D" stroke-width="1.99733" stroke-linecap="round" stroke-linejoin="round" stroke-miterlimit="10" fill="none" transform="matrix(1 0 0 1.00362 8.18938 -19.5838)"/><path d="M494.653 405.215 501.643 405.215 501.643 412.206 494.653 412.206Z" fill="#BA8F2D" transform="matrix(1 0 0 1.00362 8.18938 -19.5838)"/><path d="M565.558 394.23 572.549 394.23 572.549 401.22 565.558 401.22Z" fill="#BA8F2D" transform="matrix(1 0 0 1.00362 8.18938 -19.5838)"/><path d="M636.463 376.254 643.454 376.254 643.454 383.244 636.463 383.244Z" fill="#BA8F2D" transform="matrix(1 0 0 1.00362 8.18938 -19.5838)"/><path d="M707.369 347.292 714.359 347.292 714.359 354.283 707.369 354.283Z" fill="#BA8F2D" transform="matrix(1 0 0 1.00362 8.18938 -19.5838)"/><path d="M777.275 313.338 784.266 313.338 784.266 320.328 777.275 320.328Z" fill="#BA8F2D" transform="matrix(1 0 0 1.00362 8.18938 -19.5838)"/><path d="M848.181 277.386 855.171 277.386 855.171 284.376 848.181 284.376Z" fill="#BA8F2D" transform="matrix(1 0 0 1.00362 8.18938 -19.5838)"/><path d="M497.336 401.464C520.904 396.931 544.473 392.852 568.042 387.865 591.61 382.879 615.179 376.759 638.747 371.547 662.316 366.334 685.884 360.894 709.453 356.588 733.021 352.282 756.59 348.882 780.158 345.708 803.727 342.536 827.295 340.269 850.864 337.549" stroke="#B95B22" stroke-width="1.99733" stroke-linecap="round" stroke-linejoin="round" stroke-miterlimit="10" fill="none" transform="matrix(1 0 0 1.00362 8.18938 -19.5838)"/><path d="M497.649 397.226 501.643 405.215 493.654 405.215Z" fill="#B95B22" transform="matrix(1 0 0 1.00362 8.18938 -19.5838)"/><path d="M568.554 383.244 572.549 391.234 564.559 391.234Z" fill="#B95B22" transform="matrix(1 0 0 1.00362 8.18938 -19.5838)"/><path d="M639.459 367.266 643.454 375.255 635.465 375.255Z" fill="#B95B22" transform="matrix(1 0 0 1.00362 8.18938 -19.5838)"/><path d="M710.365 352.286 714.359 360.275 706.37 360.275Z" fill="#B95B22" transform="matrix(1 0 0 1.00362 8.18938 -19.5838)"/><path d="M780.271 341.3 784.266 349.29 776.277 349.29Z" fill="#B95B22" transform="matrix(1 0 0 1.00362 8.18938 -19.5838)"/><path d="M851.177 333.311 855.171 341.3 847.182 341.3Z" fill="#B95B22" transform="matrix(1 0 0 1.00362 8.18938 -19.5838)"/><text fill="#BA8F2D" font-family="Calibri,Calibri_MSFontService,sans-serif" font-weight="400" font-size="16" transform="matrix(0.998667 0 0 1.00228 495.346 409)">2</text><text fill="#BA8F2D" font-family="Calibri,Calibri_MSFontService,sans-serif" font-weight="400" font-size="16" transform="matrix(0.998667 0 0 1.00228 503.445 409)">.</text><text fill="#BA8F2D" font-family="Calibri,Calibri_MSFontService,sans-serif" font-weight="400" font-size="16" transform="matrix(0.998667 0 0 1.00228 507.478 409)">0</text><text fill="#BA8F2D" font-family="Calibri,Calibri_MSFontService,sans-serif" font-weight="400" font-size="16" transform="matrix(0.998667 0 0 1.00228 566.03 399)">2</text><text fill="#BA8F2D" font-family="Calibri,Calibri_MSFontService,sans-serif" font-weight="400" font-size="16" transform="matrix(0.998667 0 0 1.00228 574.128 399)">.</text><text fill="#BA8F2D" font-family="Calibri,Calibri_MSFontService,sans-serif" font-weight="400" font-size="16" transform="matrix(0.998667 0 0 1.00228 578.162 399)">8</text><text fill="#BA8F2D" font-family="Calibri,Calibri_MSFontService,sans-serif" font-weight="400" font-size="16" transform="matrix(0.998667 0 0 1.00228 637.062 381)">4</text><text fill="#BA8F2D" font-family="Calibri,Calibri_MSFontService,sans-serif" font-weight="400" font-size="16" transform="matrix(0.998667 0 0 1.00228 645.16 381)">.</text><text fill="#BA8F2D" font-family="Calibri,Calibri_MSFontService,sans-serif" font-weight="400" font-size="16" transform="matrix(0.998667 0 0 1.00228 649.194 381)">1</text><text fill="#BA8F2D" font-family="Calibri,Calibri_MSFontService,sans-serif" font-weight="400" font-size="16" transform="matrix(0.998667 0 0 1.00228 707.396 321)">6</text><text fill="#BA8F2D" font-family="Calibri,Calibri_MSFontService,sans-serif" font-weight="400" font-size="16" transform="matrix(0.998667 0 0 1.00228 715.494 321)">.</text><text fill="#BA8F2D" font-family="Calibri,Calibri_MSFontService,sans-serif" font-weight="400" font-size="16" transform="matrix(0.998667 0 0 1.00228 719.528 321)">2</text><text fill="#BA8F2D" font-family="Calibri,Calibri_MSFontService,sans-serif" font-weight="400" font-size="16" transform="matrix(0.998667 0 0 1.00228 778.079 286)">8</text><text fill="#BA8F2D" font-family="Calibri,Calibri_MSFontService,sans-serif" font-weight="400" font-size="16" transform="matrix(0.998667 0 0 1.00228 786.178 286)">.</text><text fill="#BA8F2D" font-family="Calibri,Calibri_MSFontService,sans-serif" font-weight="400" font-size="16" transform="matrix(0.998667 0 0 1.00228 790.212 286)">7</text><text fill="#BA8F2D" font-family="Calibri,Calibri_MSFontService,sans-serif" font-weight="400" font-size="16" transform="matrix(0.998667 0 0 1.00228 846.82 255)">11</text><text fill="#BA8F2D" font-family="Calibri,Calibri_MSFontService,sans-serif" font-weight="400" font-size="16" transform="matrix(0.998667 0 0 1.00228 863.017 255)">.</text><text fill="#BA8F2D" font-family="Calibri,Calibri_MSFontService,sans-serif" font-weight="400" font-size="16" transform="matrix(0.998667 0 0 1.00228 867.05 255)">3</text><path d="M639.646 371.005 638.647 365.013" stroke="#A6A6A6" stroke-width="0.998667" stroke-linejoin="round" stroke-miterlimit="10" fill="none" transform="matrix(1 0 0 1.00362 8.18938 -19.5838)"/><text fill="#B95B22" font-family="Calibri,Calibri_MSFontService,sans-serif" font-weight="400" font-size="16" transform="matrix(0.998667 0 0 1.00228 495.75 369)">2</text><text fill="#B95B22" font-family="Calibri,Calibri_MSFontService,sans-serif" font-weight="400" font-size="16" transform="matrix(0.998667 0 0 1.00228 503.849 369)">.</text><text fill="#B95B22" font-family="Calibri,Calibri_MSFontService,sans-serif" font-weight="400" font-size="16" transform="matrix(0.998667 0 0 1.00228 507.883 369)">5</text><text fill="#B95B22" font-family="Calibri,Calibri_MSFontService,sans-serif" font-weight="400" font-size="16" transform="matrix(0.998667 0 0 1.00228 566.434 355)">3</text><text fill="#B95B22" font-family="Calibri,Calibri_MSFontService,sans-serif" font-weight="400" font-size="16" transform="matrix(0.998667 0 0 1.00228 574.533 355)">.</text><text fill="#B95B22" font-family="Calibri,Calibri_MSFontService,sans-serif" font-weight="400" font-size="16" transform="matrix(0.998667 0 0 1.00228 578.566 355)">5</text><text fill="#B95B22" font-family="Calibri,Calibri_MSFontService,sans-serif" font-weight="400" font-size="16" transform="matrix(0.998667 0 0 1.00228 636.501 340)">4</text><text fill="#B95B22" font-family="Calibri,Calibri_MSFontService,sans-serif" font-weight="400" font-size="16" transform="matrix(0.998667 0 0 1.00228 644.6 340)">.</text><text fill="#B95B22" font-family="Calibri,Calibri_MSFontService,sans-serif" font-weight="400" font-size="16" transform="matrix(0.998667 0 0 1.00228 648.634 340)">7</text><text fill="#B95B22" font-family="Calibri,Calibri_MSFontService,sans-serif" font-weight="400" font-size="16" transform="matrix(0.998667 0 0 1.00228 708.915 359)">5</text><text fill="#B95B22" font-family="Calibri,Calibri_MSFontService,sans-serif" font-weight="400" font-size="16" transform="matrix(0.998667 0 0 1.00228 717.013 359)">.</text><text fill="#B95B22" font-family="Calibri,Calibri_MSFontService,sans-serif" font-weight="400" font-size="16" transform="matrix(0.998667 0 0 1.00228 721.047 359)">8</text><text fill="#B95B22" font-family="Calibri,Calibri_MSFontService,sans-serif" font-weight="400" font-size="16" transform="matrix(0.998667 0 0 1.00228 779.171 348)">6</text><text fill="#B95B22" font-family="Calibri,Calibri_MSFontService,sans-serif" font-weight="400" font-size="16" transform="matrix(0.998667 0 0 1.00228 787.27 348)">.</text><text fill="#B95B22" font-family="Calibri,Calibri_MSFontService,sans-serif" font-weight="400" font-size="16" transform="matrix(0.998667 0 0 1.00228 791.303 348)">6</text><text fill="#B95B22" font-family="Calibri,Calibri_MSFontService,sans-serif" font-weight="400" font-size="16" transform="matrix(0.998667 0 0 1.00228 847.419 341)">7</text><text fill="#B95B22" font-family="Calibri,Calibri_MSFontService,sans-serif" font-weight="400" font-size="16" transform="matrix(0.998667 0 0 1.00228 855.517 341)">.</text><text fill="#B95B22" font-family="Calibri,Calibri_MSFontService,sans-serif" font-weight="400" font-size="16" transform="matrix(0.998667 0 0 1.00228 859.551 341)">2</text><text fill="#595959" font-family="Calibri,Calibri_MSFontService,sans-serif" font-weight="400" font-size="15" transform="matrix(0.998667 0 0 1.00228 438.389 422)">0</text><text fill="#595959" font-family="Calibri,Calibri_MSFontService,sans-serif" font-weight="400" font-size="15" transform="matrix(0.998667 0 0 1.00228 445.981 422)">.</text><text fill="#595959" font-family="Calibri,Calibri_MSFontService,sans-serif" font-weight="400" font-size="15" transform="matrix(0.998667 0 0 1.00228 449.763 422)">0</text><text fill="#595959" font-family="Calibri,Calibri_MSFontService,sans-serif" font-weight="400" font-size="15" transform="matrix(0.998667 0 0 1.00228 438.389 394)">2</text><text fill="#595959" font-family="Calibri,Calibri_MSFontService,sans-serif" font-weight="400" font-size="15" transform="matrix(0.998667 0 0 1.00228 445.981 394)">.</text><text fill="#595959" font-family="Calibri,Calibri_MSFontService,sans-serif" font-weight="400" font-size="15" transform="matrix(0.998667 0 0 1.00228 449.763 394)">0</text><text fill="#595959" font-family="Calibri,Calibri_MSFontService,sans-serif" font-weight="400" font-size="15" transform="matrix(0.998667 0 0 1.00228 438.389 367)">4</text><text fill="#595959" font-family="Calibri,Calibri_MSFontService,sans-serif" font-weight="400" font-size="15" transform="matrix(0.998667 0 0 1.00228 445.981 367)">.</text><text fill="#595959" font-family="Calibri,Calibri_MSFontService,sans-serif" font-weight="400" font-size="15" transform="matrix(0.998667 0 0 1.00228 449.763 367)">0</text><text fill="#595959" font-family="Calibri,Calibri_MSFontService,sans-serif" font-weight="400" font-size="15" transform="matrix(0.998667 0 0 1.00228 438.389 339)">6</text><text fill="#595959" font-family="Calibri,Calibri_MSFontService,sans-serif" font-weight="400" font-size="15" transform="matrix(0.998667 0 0 1.00228 445.981 339)">.</text><text fill="#595959" font-family="Calibri,Calibri_MSFontService,sans-serif" font-weight="400" font-size="15" transform="matrix(0.998667 0 0 1.00228 449.763 339)">0</text><text fill="#595959" font-family="Calibri,Calibri_MSFontService,sans-serif" font-weight="400" font-size="15" transform="matrix(0.998667 0 0 1.00228 438.389 312)">8</text><text fill="#595959" font-family="Calibri,Calibri_MSFontService,sans-serif" font-weight="400" font-size="15" transform="matrix(0.998667 0 0 1.00228 445.981 312)">.</text><text fill="#595959" font-family="Calibri,Calibri_MSFontService,sans-serif" font-weight="400" font-size="15" transform="matrix(0.998667 0 0 1.00228 449.763 312)">0</text><text fill="#595959" font-family="Calibri,Calibri_MSFontService,sans-serif" font-weight="400" font-size="15" transform="matrix(0.998667 0 0 1.00228 430.966 284)">10</text><text fill="#595959" font-family="Calibri,Calibri_MSFontService,sans-serif" font-weight="400" font-size="15" transform="matrix(0.998667 0 0 1.00228 446.151 284)">.</text><text fill="#595959" font-family="Calibri,Calibri_MSFontService,sans-serif" font-weight="400" font-size="15" transform="matrix(0.998667 0 0 1.00228 449.932 284)">0</text><text fill="#595959" font-family="Calibri,Calibri_MSFontService,sans-serif" font-weight="400" font-size="15" transform="matrix(0.998667 0 0 1.00228 430.966 257)">12</text><text fill="#595959" font-family="Calibri,Calibri_MSFontService,sans-serif" font-weight="400" font-size="15" transform="matrix(0.998667 0 0 1.00228 446.151 257)">.</text><text fill="#595959" font-family="Calibri,Calibri_MSFontService,sans-serif" font-weight="400" font-size="15" transform="matrix(0.998667 0 0 1.00228 449.932 257)">0</text><text fill="#595959" font-family="Calibri,Calibri_MSFontService,sans-serif" font-weight="400" font-size="15" transform="matrix(0.998667 0 0 1.00228 498.441 436)">16</text><text fill="#595959" font-family="Calibri,Calibri_MSFontService,sans-serif" font-weight="400" font-size="15" transform="matrix(0.998667 0 0 1.00228 569.123 436)">32</text><text fill="#595959" font-family="Calibri,Calibri_MSFontService,sans-serif" font-weight="400" font-size="15" transform="matrix(0.998667 0 0 1.00228 639.807 436)">64</text><text fill="#595959" font-family="Calibri,Calibri_MSFontService,sans-serif" font-weight="400" font-size="15" transform="matrix(0.998667 0 0 1.00228 706.78 436)">128</text><text fill="#595959" font-family="Calibri,Calibri_MSFontService,sans-serif" font-weight="400" font-size="15" transform="matrix(0.998667 0 0 1.00228 777.462 436)">256</text><text fill="#595959" font-family="Calibri,Calibri_MSFontService,sans-serif" font-weight="400" font-size="15" transform="matrix(0.998667 0 0 1.00228 848.146 436)">512</text><text fill="#595959" font-family="Calibri,Calibri_MSFontService,sans-serif" font-weight="400" font-size="15" transform="matrix(6.11507e-17 -1.00228 0.998667 6.1372e-17 424.817 381)">Speedup Ratio</text><text fill="#595959" font-family="Calibri,Calibri_MSFontService,sans-serif" font-weight="400" font-size="15" transform="matrix(0.998667 0 0 1.00228 588.938 452)">Sequence Length </text><text fill="#595959" font-family="Calibri,Calibri_MSFontService,sans-serif" font-weight="400" font-size="15" transform="matrix(0.998667 0 0 1.00228 696.234 452)">(</text><text fill="#595959" font-family="Calibri,Calibri_MSFontService,sans-serif" font-weight="400" font-size="15" transform="matrix(0.998667 0 0 1.00228 700.776 452)">Frames</text><text fill="#595959" font-family="Calibri,Calibri_MSFontService,sans-serif" font-weight="400" font-size="15" transform="matrix(0.998667 0 0 1.00228 745.028 452)">)</text><path d="M477.363 281.624 503.328 281.624" stroke="#BA8F2D" stroke-width="1.99733" stroke-linecap="round" stroke-linejoin="round" stroke-miterlimit="10" fill="none" fill-rule="evenodd" transform="matrix(1 0 0 1.00362 8.18938 -19.5838)"/><path d="M487.349 277.629 494.34 277.629 494.34 284.62 487.349 284.62Z" fill="#BA8F2D" transform="matrix(1 0 0 1.00362 8.18938 -19.5838)"/><text fill="#595959" font-family="Calibri,Calibri_MSFontService,sans-serif" font-weight="400" font-size="15" transform="matrix(0.998667 0 0 1.00228 514.236 267)">Co</text><text fill="#595959" font-family="Calibri,Calibri_MSFontService,sans-serif" font-weight="400" font-size="15" transform="matrix(0.998667 0 0 1.00228 530.123 267)">-</text><text fill="#595959" font-family="Calibri,Calibri_MSFontService,sans-serif" font-weight="400" font-size="15" transform="matrix(0.998667 0 0 1.00228 534.709 267)">Me </text><text fill="#595959" font-family="Calibri,Calibri_MSFontService,sans-serif" font-weight="400" font-size="15" transform="matrix(0.998667 0 0 1.00228 558.357 267)">+ </text><text fill="#595959" font-family="Calibri,Calibri_MSFontService,sans-serif" font-weight="400" font-size="15" transform="matrix(0.998667 0 0 1.00228 569.204 267)">VGGT</text><path d="M477.363 301.597 503.328 301.597" stroke="#B95B22" stroke-width="1.99733" stroke-linecap="round" stroke-linejoin="round" stroke-miterlimit="10" fill="none" fill-rule="evenodd" transform="matrix(1 0 0 1.00362 8.18938 -19.5838)"/><path d="M490.345 297.603 494.34 305.592 486.351 305.592Z" fill="#B95B22" transform="matrix(1 0 0 1.00362 8.18938 -19.5838)"/><text fill="#595959" font-family="Calibri,Calibri_MSFontService,sans-serif" font-weight="400" font-size="15" transform="matrix(0.998667 0 0 1.00228 514.236 288)">Co</text><text fill="#595959" font-family="Calibri,Calibri_MSFontService,sans-serif" font-weight="400" font-size="15" transform="matrix(0.998667 0 0 1.00228 530.123 288)">-</text><text fill="#595959" font-family="Calibri,Calibri_MSFontService,sans-serif" font-weight="400" font-size="15" transform="matrix(0.998667 0 0 1.00228 534.709 288)">Me </text><text fill="#595959" font-family="Calibri,Calibri_MSFontService,sans-serif" font-weight="400" font-size="15" transform="matrix(0.998667 0 0 1.00228 558.357 288)">+ </text><text fill="#595959" font-family="Calibri,Calibri_MSFontService,sans-serif" font-weight="400" font-size="15" transform="matrix(0.998667 0 0 1.00228 569.204 288)">MapAnything</text></g></svg>